<svg width="424" height="83" viewBox="0 0 424 83" fill="none" xmlns="http://www.w3.org/2000/svg">
  <path
    d="M37.048 65.464C34.872 66.04 32.216 66.616 29.08 67.192C26.008 67.768 22.648 68.056 19 68.056C15.288 68.056 12.248 67.544 9.88 66.52C7.512 65.496 5.624 64.056 4.216 62.2C2.872 60.28 1.944 58.04 1.432 55.48C0.92 52.92 0.664 50.104 0.664 47.032V21.88H12.472V45.496C12.472 49.656 12.952 52.76 13.912 54.808C14.936 56.792 16.888 57.784 19.768 57.784C21.56 57.784 23.352 57.624 25.144 57.304V21.88H37.048V65.464ZM76.024 44.824C76.024 40.792 75.224 37.496 73.624 34.936C72.024 32.312 69.592 31 66.328 31C65.432 31 64.472 31.064 63.448 31.192C62.424 31.256 61.56 31.32 60.856 31.384V56.152C61.624 56.664 62.648 57.08 63.928 57.4C65.208 57.72 66.488 57.88 67.768 57.88C70.584 57.88 72.664 56.76 74.008 54.52C75.352 52.216 76.024 48.984 76.024 44.824ZM88.024 44.44C88.024 47.896 87.64 51.096 86.872 54.04C86.104 56.92 84.984 59.416 83.512 61.528C82.04 63.576 80.184 65.176 77.944 66.328C75.704 67.48 73.112 68.056 70.168 68.056C67.16 68.056 64.056 67.32 60.856 65.848V82.84H49.048V23.32C51.224 22.616 53.88 22.04 57.016 21.592C60.216 21.144 63.352 20.92 66.424 20.92C73.4 20.92 78.744 23.032 82.456 27.256C86.168 31.48 88.024 37.208 88.024 44.44ZM135.832 65.08C135.64 65.208 135.192 65.432 134.488 65.752C133.848 66.072 132.984 66.424 131.896 66.808C130.808 67.128 129.464 67.416 127.864 67.672C126.328 67.928 124.568 68.056 122.584 68.056C117.144 68.056 113.176 66.456 110.68 63.256C108.184 59.992 106.936 55.256 106.936 49.048V10.744H94.456V0.951998H118.744V49.912C118.744 52.984 119.352 55.064 120.568 56.152C121.784 57.24 123.32 57.784 125.176 57.784C127.544 57.784 129.528 57.464 131.128 56.824C132.728 56.184 133.784 55.768 134.296 55.576L135.832 65.08ZM184.312 44.344C184.312 47.928 183.8 51.192 182.776 54.136C181.752 57.016 180.312 59.512 178.456 61.624C176.6 63.736 174.36 65.368 171.736 66.52C169.176 67.672 166.296 68.248 163.096 68.248C159.896 68.248 156.984 67.672 154.36 66.52C151.8 65.368 149.56 63.736 147.64 61.624C145.784 59.512 144.344 57.016 143.32 54.136C142.296 51.192 141.784 47.928 141.784 44.344C141.784 40.824 142.296 37.624 143.32 34.744C144.408 31.8 145.88 29.304 147.736 27.256C149.656 25.144 151.928 23.544 154.552 22.456C157.176 21.304 160.024 20.728 163.096 20.728C166.232 20.728 169.08 21.304 171.64 22.456C174.264 23.544 176.504 25.144 178.36 27.256C180.28 29.304 181.752 31.8 182.776 34.744C183.8 37.624 184.312 40.824 184.312 44.344ZM153.784 44.44C153.784 48.472 154.488 51.736 155.896 54.232C157.368 56.728 159.704 57.976 162.904 57.976C165.976 57.976 168.28 56.728 169.816 54.232C171.416 51.736 172.216 48.472 172.216 44.44C172.216 40.408 171.48 37.176 170.008 34.744C168.6 32.248 166.296 31 163.096 31C160.024 31 157.688 32.248 156.088 34.744C154.552 37.176 153.784 40.408 153.784 44.44ZM211.096 58.552C212.376 58.552 213.624 58.552 214.84 58.552C216.056 58.488 217.112 58.392 218.008 58.264V47.896C217.24 47.768 216.312 47.672 215.224 47.608C214.136 47.48 213.144 47.416 212.248 47.416C211.032 47.416 209.848 47.512 208.696 47.704C207.544 47.832 206.52 48.088 205.624 48.472C204.792 48.856 204.12 49.4 203.608 50.104C203.096 50.808 202.84 51.736 202.84 52.888C202.84 54.936 203.608 56.408 205.144 57.304C206.68 58.136 208.664 58.552 211.096 58.552ZM210.04 20.728C213.752 20.728 216.824 21.176 219.256 22.072C221.752 22.904 223.736 24.12 225.208 25.72C226.68 27.256 227.736 29.176 228.376 31.48C229.016 33.72 229.336 36.248 229.336 39.064V65.944C227.608 66.328 225.048 66.776 221.656 67.288C218.264 67.8 214.456 68.056 210.232 68.056C207.352 68.056 204.728 67.8 202.36 67.288C200.056 66.776 198.072 65.944 196.408 64.792C194.744 63.576 193.464 62.04 192.568 60.184C191.672 58.264 191.224 55.928 191.224 53.176C191.224 50.552 191.736 48.344 192.76 46.552C193.784 44.76 195.16 43.32 196.888 42.232C198.616 41.144 200.6 40.376 202.84 39.928C205.08 39.416 207.416 39.16 209.848 39.16C212.92 39.16 215.64 39.416 218.008 39.928V38.488C218.008 36.248 217.304 34.392 215.896 32.92C214.488 31.384 212.056 30.616 208.6 30.616C206.36 30.616 204.184 30.776 202.072 31.096C200.024 31.416 198.36 31.8 197.08 32.248L195.448 22.744C196.92 22.232 199 21.784 201.688 21.4C204.376 20.952 207.16 20.728 210.04 20.728ZM249.688 44.152C249.688 48.184 250.424 51.48 251.896 54.04C253.432 56.6 255.864 57.88 259.192 57.88C260.152 57.88 261.048 57.848 261.88 57.784C262.712 57.72 263.576 57.624 264.472 57.496V32.92C263.576 32.408 262.552 31.992 261.4 31.672C260.248 31.288 259.032 31.096 257.752 31.096C254.936 31.096 252.888 32.216 251.608 34.456C250.328 36.696 249.688 39.928 249.688 44.152ZM276.28 65.656C274.104 66.36 271.448 66.936 268.312 67.384C265.176 67.832 262.104 68.056 259.096 68.056C252.056 68.056 246.712 65.976 243.064 61.816C239.48 57.656 237.688 51.96 237.688 44.728C237.688 37.368 239.192 31.576 242.2 27.352C245.272 23.064 249.784 20.92 255.736 20.92C257.336 20.92 258.904 21.112 260.44 21.496C261.976 21.816 263.32 22.296 264.472 22.936V2.392L276.28 0.375999V65.656ZM315.64 59.416C315.64 62.232 314.776 64.376 313.048 65.848C311.32 67.32 309.336 68.056 307.096 68.056C305.944 68.056 304.856 67.864 303.832 67.48C302.808 67.096 301.88 66.552 301.048 65.848C300.28 65.08 299.64 64.184 299.128 63.16C298.68 62.072 298.456 60.824 298.456 59.416C298.456 58.072 298.68 56.888 299.128 55.864C299.64 54.776 300.28 53.88 301.048 53.176C301.88 52.472 302.808 51.928 303.832 51.544C304.856 51.16 305.944 50.968 307.096 50.968C309.336 50.968 311.32 51.704 313.048 53.176C314.776 54.648 315.64 56.728 315.64 59.416Z"
    fill="white" />
  <path
    d="M355.096 58.552C356.376 58.552 357.624 58.552 358.84 58.552C360.056 58.488 361.112 58.392 362.008 58.264V47.896C361.24 47.768 360.312 47.672 359.224 47.608C358.136 47.48 357.144 47.416 356.248 47.416C355.032 47.416 353.848 47.512 352.696 47.704C351.544 47.832 350.52 48.088 349.624 48.472C348.792 48.856 348.12 49.4 347.608 50.104C347.096 50.808 346.84 51.736 346.84 52.888C346.84 54.936 347.608 56.408 349.144 57.304C350.68 58.136 352.664 58.552 355.096 58.552ZM354.04 20.728C357.752 20.728 360.824 21.176 363.256 22.072C365.752 22.904 367.736 24.12 369.208 25.72C370.68 27.256 371.736 29.176 372.376 31.48C373.016 33.72 373.336 36.248 373.336 39.064V65.944C371.608 66.328 369.048 66.776 365.656 67.288C362.264 67.8 358.456 68.056 354.232 68.056C351.352 68.056 348.728 67.8 346.36 67.288C344.056 66.776 342.072 65.944 340.408 64.792C338.744 63.576 337.464 62.04 336.568 60.184C335.672 58.264 335.224 55.928 335.224 53.176C335.224 50.552 335.736 48.344 336.76 46.552C337.784 44.76 339.16 43.32 340.888 42.232C342.616 41.144 344.6 40.376 346.84 39.928C349.08 39.416 351.416 39.16 353.848 39.16C356.92 39.16 359.64 39.416 362.008 39.928V38.488C362.008 36.248 361.304 34.392 359.896 32.92C358.488 31.384 356.056 30.616 352.6 30.616C350.36 30.616 348.184 30.776 346.072 31.096C344.024 31.416 342.36 31.8 341.08 32.248L339.448 22.744C340.92 22.232 343 21.784 345.688 21.4C348.376 20.952 351.16 20.728 354.04 20.728ZM406.264 8.92C406.264 11.224 405.528 13.048 404.056 14.392C402.584 15.736 400.824 16.408 398.776 16.408C396.728 16.408 394.968 15.736 393.496 14.392C392.088 13.048 391.384 11.224 391.384 8.92C391.384 6.552 392.088 4.696 393.496 3.352C394.968 2.008 396.728 1.336 398.776 1.336C400.824 1.336 402.584 2.008 404.056 3.352C405.528 4.696 406.264 6.552 406.264 8.92ZM423.832 65.08C421.4 66.232 419.096 67 416.92 67.384C414.808 67.832 412.856 68.056 411.064 68.056C407.992 68.056 405.4 67.608 403.288 66.712C401.24 65.816 399.576 64.536 398.296 62.872C397.08 61.144 396.216 59.064 395.704 56.632C395.192 54.2 394.936 51.416 394.936 48.28V31.672H382.456V21.88H406.744V49.816C406.744 52.504 407.224 54.52 408.184 55.864C409.208 57.144 410.872 57.784 413.176 57.784C414.264 57.784 415.576 57.656 417.112 57.4C418.648 57.08 420.376 56.472 422.296 55.576L423.832 65.08Z"
    fill="#6426D9" />
</svg>